<svg width="36" height="36" viewBox="0 0 36 36" fill="none" xmlns="http://www.w3.org/2000/svg">
<path d="M30 0.5C33.0376 0.5 35.5 2.96243 35.5 6V30C35.5 33.0376 33.0376 35.5 30 35.5H0.5V0.5H30Z" fill="#E9EAED"/>
<path d="M30 0.5C33.0376 0.5 35.5 2.96243 35.5 6V30C35.5 33.0376 33.0376 35.5 30 35.5H0.5V0.5H30Z" stroke="#E9EAED"/>
<path d="M14.8263 11.333H13.5597C12.0997 11.333 11.333 12.0997 11.333 13.553V14.8197C11.333 16.273 12.0997 17.0397 13.553 17.0397H14.8197C16.273 17.0397 17.0397 16.273 17.0397 14.8197V13.553C17.0463 12.0997 16.2797 11.333 14.8263 11.333Z" fill="#687384"/>
<path d="M22.4466 11.333H21.18C19.7266 11.333 18.96 12.0997 18.96 13.553V14.8197C18.96 16.273 19.7266 17.0397 21.18 17.0397H22.4466C23.9 17.0397 24.6666 16.273 24.6666 14.8197V13.553C24.6666 12.0997 23.9 11.333 22.4466 11.333Z" fill="#687384"/>
<path d="M22.4466 18.9531H21.18C19.7266 18.9531 18.96 19.7198 18.96 21.1731V22.4398C18.96 23.8931 19.7266 24.6598 21.18 24.6598H22.4466C23.9 24.6598 24.6666 23.8931 24.6666 22.4398V21.1731C24.6666 19.7198 23.9 18.9531 22.4466 18.9531Z" fill="#687384"/>
<path d="M14.8263 18.9531H13.5597C12.0997 18.9531 11.333 19.7198 11.333 21.1731V22.4398C11.333 23.8998 12.0997 24.6665 13.553 24.6665H14.8197C16.273 24.6665 17.0397 23.8998 17.0397 22.4465V21.1798C17.0463 19.7198 16.2797 18.9531 14.8263 18.9531Z" fill="#687384"/>
</svg>
