<svg width="40" height="41" viewBox="0 0 40 41" fill="none" xmlns="http://www.w3.org/2000/svg">
<circle cx="20" cy="20.5" r="20" fill="#F2F3F4"/>
<path opacity="0.4" d="M28.9845 24.0725L27.7564 22.1358C27.4985 21.7041 27.2652 20.8875 27.2652 20.4091V17.4574C27.2652 13.6541 24.0108 10.5508 19.995 10.5508C15.9792 10.5508 12.7248 13.6541 12.7248 17.4574V20.4091C12.7248 20.8875 12.4915 21.7041 12.2336 22.1241L10.9933 24.0725C10.502 24.8541 10.3915 25.7175 10.6985 26.5108C10.9933 27.2925 11.6933 27.8991 12.602 28.1908C14.9845 28.9608 17.4898 29.3341 19.995 29.3341C22.5003 29.3341 25.0056 28.9608 27.388 28.2025C28.2477 27.9341 28.9108 27.3158 29.2301 26.5108C29.5494 25.7058 29.4634 24.8191 28.9845 24.0725Z" fill="#111928"/>
<path d="M22.7344 11.04C21.8871 10.725 20.966 10.55 19.9958 10.55C19.038 10.55 18.1169 10.7133 17.2695 11.04C17.7976 10.095 17.9917 8.5 19.9958 8.5C22 8.5 22.1941 10.095 22.7344 11.04Z" fill="#111928"/>
<path d="M23.4503 30.5117C22.9345 31.865 21.5714 32.8333 19.9749 32.8333C19.0047 32.8333 18.0468 32.46 17.3714 31.795C16.9784 31.445 16.6836 30.9783 16.5117 30.5C16.6714 30.5233 16.831 30.535 17.0029 30.5583C17.2854 30.5933 17.5801 30.6283 17.8749 30.6517C18.5749 30.71 19.2872 30.745 19.9994 30.745C20.6994 30.745 21.3994 30.71 22.0872 30.6517C22.3451 30.6283 22.6029 30.6167 22.8486 30.5817C23.0451 30.5583 23.2415 30.535 23.4503 30.5117Z" fill="#111928"/>
<path d="M25 12C27.4853 12 29.5 14.0147 29.5 16.5C29.5 18.9853 27.4853 21 25 21C22.5147 21 20.5 18.9853 20.5 16.5C20.5 14.0147 22.5147 12 25 12Z" fill="#62AB5B" stroke="white"/>
</svg>
