<svg width="25" height="25" viewBox="0 0 25 25" fill="none" xmlns="http://www.w3.org/2000/svg">
<path opacity="0.4" d="M12.5 25C19.4036 25 25 19.4036 25 12.5C25 5.59644 19.4036 0 12.5 0C5.59644 0 0 5.59644 0 12.5C0 19.4036 5.59644 25 12.5 25Z" fill="#EB672F"/>
<path d="M12.5 6.16309C9.9125 6.16309 7.8125 8.26309 7.8125 10.8506C7.8125 13.3881 9.8 15.4506 12.4375 15.5256C12.475 15.5256 12.525 15.5256 12.55 15.5256C12.575 15.5256 12.6125 15.5256 12.6375 15.5256C12.65 15.5256 12.6625 15.5256 12.6625 15.5256C15.1875 15.4381 17.175 13.3881 17.1875 10.8506C17.1875 8.26309 15.0875 6.16309 12.5 6.16309Z" fill="#EB672F"/>
<path d="M20.9754 21.6881C18.7504 23.7381 15.7754 25.0006 12.5004 25.0006C9.22539 25.0006 6.25039 23.7381 4.02539 21.6881C4.32539 20.5506 5.13789 19.5131 6.32539 18.7131C9.73789 16.4381 15.2879 16.4381 18.6754 18.7131C19.8754 19.5131 20.6754 20.5506 20.9754 21.6881Z" fill="#EB672F"/>
</svg>
